<svg viewBox="0 0 96 96" xmlns="http://www.w3.org/2000/svg" width="24" height="24"><path d="M69.844 43.388 33.842 13.386a6.004 6.004 0 0 0-7.688 9.223L56.624 48l-30.47 25.39a6.004 6.004 0 0 0 7.688 9.223l36.002-30.001a6.01 6.01 0 0 0 0-9.223"/></svg><svg xmlns="http://www.w3.org/2000/svg" width="24" height="24" fill="none" viewBox="0 0 24 24"><path fill="currentColor" fill-rule="evenodd" d="M8.293 5.293a1 1 0 0 1 1.414 0l6 6a1 1 0 0 1 0 1.414l-6 6a1 1 0 0 1-1.414-1.414L13.586 12 8.293 6.707a1 1 0 0 1 0-1.414Z" clip-rule="evenodd"></path></svg>