<svg width="50" height="50" viewBox="0 0 50 50" fill="none" xmlns="http://www.w3.org/2000/svg">
<rect width="50" height="50" rx="25" fill="#D9D9D9"/>
<path d="M22.86 35.504C21.684 35.504 20.648 35.2987 19.752 34.888C18.856 34.4773 18.1653 33.908 17.68 33.18C17.1947 32.4333 16.952 31.5747 16.952 30.604C16.952 29.7827 17.12 29.036 17.456 28.364C17.8107 27.692 18.2773 27.16 18.856 26.768C19.4533 26.376 20.1067 26.18 20.816 26.18C21.4693 26.18 22.02 26.348 22.468 26.684C22.916 27.0013 23.196 27.4493 23.308 28.028C22.3373 28.028 21.5627 28.2893 20.984 28.812C20.4053 29.316 20.116 30.0067 20.116 30.884C20.116 31.6867 20.3587 32.3307 20.844 32.816C21.3293 33.3013 21.9733 33.544 22.776 33.544C23.7653 33.544 24.5773 33.2173 25.212 32.564C25.8653 31.892 26.192 31.052 26.192 30.044C26.192 29.1667 25.9493 28.336 25.464 27.552C24.9787 26.768 24.2507 25.816 23.28 24.696C22.272 23.5387 21.5067 22.5493 20.984 21.728C20.48 20.888 20.228 19.9733 20.228 18.984C20.228 18.0133 20.4987 17.1453 21.04 16.38C21.5813 15.596 22.328 14.98 23.28 14.532C24.232 14.084 25.3053 13.86 26.5 13.86C28.012 13.86 29.216 14.2147 30.112 14.924C31.0267 15.6333 31.484 16.5853 31.484 17.78C31.484 18.564 31.288 19.1987 30.896 19.684C30.504 20.1693 29.9907 20.412 29.356 20.412C28.6467 20.412 28.0773 20.1227 27.648 19.544C28.0027 19.2827 28.2827 18.9373 28.488 18.508C28.6933 18.0787 28.796 17.6307 28.796 17.164C28.796 16.5667 28.6187 16.0907 28.264 15.736C27.9093 15.3813 27.424 15.204 26.808 15.204C26.0613 15.204 25.4453 15.4747 24.96 16.016C24.4933 16.5387 24.26 17.2107 24.26 18.032C24.26 18.7787 24.4747 19.4787 24.904 20.132C25.3333 20.7667 26.0053 21.588 26.92 22.596C27.6667 23.3987 28.264 24.0893 28.712 24.668C29.1787 25.2467 29.5707 25.9187 29.888 26.684C30.224 27.4307 30.392 28.2427 30.392 29.12C30.392 30.3147 30.056 31.3973 29.384 32.368C28.7307 33.3387 27.8253 34.104 26.668 34.664C25.5293 35.224 24.26 35.504 22.86 35.504Z" fill="black"/>
</svg>
