<svg xmlns="http://www.w3.org/2000/svg" width="26" height="26" fill="none" viewBox="0 0 26 26"><path fill="currentColor" fill-rule="evenodd" d="M7.583 4.334A1.083 1.083 0 0 0 6.5 5.417v15.228l5.87-4.193a1.084 1.084 0 0 1 1.26 0l5.87 4.193V5.417a1.084 1.084 0 0 0-1.083-1.083H7.583ZM5.285 3.119a3.25 3.25 0 0 1 2.298-.952h10.834a3.25 3.25 0 0 1 3.25 3.25V22.75a1.083 1.083 0 0 1-1.713.882L13 18.665l-6.954 4.967a1.083 1.083 0 0 1-1.713-.882V5.417c0-.862.343-1.689.952-2.298Z" clip-rule="evenodd"></path></svg>