<svg xmlns="http://www.w3.org/2000/svg" width="85" height="36" fill="none" viewBox="0 0 85 36"><rect width="83.66" height="35" x=".5" y=".5" stroke="currentColor" rx="9.5"/><path fill="currentColor" d="M29.593 22.648q1.12-1.008 1.12-2.88v-7.584h-2.368v7.584q0 2.032-2.176 2.032-2.192 0-2.192-2.032v-7.584h-2.352v7.584q0 1.872 1.12 2.88 1.28 1.167 3.424 1.168t3.424-1.168"/><path fill="currentColor" fill-rule="evenodd" d="M71.268 13.512q-1.105-1.328-3.616-1.328h-4.48V23.64h4.48q2.497 0 3.616-1.328 1.392-1.65 1.392-4.4 0-2.736-1.392-4.4m-.96 4.4q0 3.76-2.656 3.76h-2.128v-7.52h2.128q2.656 0 2.656 3.76" clip-rule="evenodd"/><path fill="currentColor" d="M14.352 23.64v-4.928h5.024v-1.968h-5.024v-2.592h5.696v-1.968H12V23.64zm21.047-1.968v-9.488h-2.352V23.64h7.84v-1.968zm9.265 0v-9.488h-2.352V23.64h7.84v-1.968zm9.266-3.232h4.544v5.2h2.352V12.184h-2.368v4.288H53.93v-4.288h-2.352V23.64h2.352z"/></svg>