<svg xmlns="http://www.w3.org/2000/svg" width="43" height="49" viewBox="0 0 43 49"><path fill-rule="evenodd" clip-rule="evenodd" d="M40.492 36.334c-1.788 2.446-5.538 3.994-10 4.814q-.365 1.032-.91 1.983l10.939 3.866-.563 3.17-13.334.033 1.605-5.43c-1.767.608-2.059 3.042-6.53 3.042-4.654 0-5-2.301-6.942-2.943l1.938 5.348-13.868.033-.508-3.195 11.1-3.982a10 10 0 0 1-.858-1.962c-4.292-.762-7.692-2.045-8.917-3.672 1.996-.05 3.334-1.763 1.746-2.55-2.23-1.088-3.642-2.731-3.854-5.177 2.408 1.13 4.583 0 3.82-1.11-2.312-3.415-.133-6.999-2.395-8.34 4.27-1.15 7.27.637 7.588-.828.95-4.33 3.333-7.314 9.425-8.775 1.342 4.553 6.034 5.567 4.03.414 3.4 1.362 6.396 5.203 6.396 6.71 1.666-.414 2.67-1.089 2.746-2.016 4.166 3.468 4.191 9.743 3.875 11.258 1.07.497 3.292-.732 4.054-1.97.933 4.967.196 8.133-2.304 9.33-1.742.832-1.196 1.759 1.72 1.95M13.086 28.9c0 1.598.213 3.75 1.084 4.897-.417 4.528-.271 6.387 1.808 9.354 1.813.456 1.538 2.596 5.609 2.596s3.75-2.322 5.608-2.596c2.084-2.967 2.209-4.826 1.813-9.354.867-1.147 1.08-3.311 1.08-4.897-.005-7.371-17.002-7.806-17.002 0m4.059 11.234c-.767-.62-.471-3.77 2.692-3.77 1.025 0 1.991-.042 3.487-.026 2.367.025 3.517 1.358 3.059 3.672z"/></svg>