<svg xmlns="http://www.w3.org/2000/svg" width="43" height="49" viewBox="0 0 43 49"><g clip-path="url(#a)"><path fill-rule="evenodd" clip-rule="evenodd" d="m28.978 10.293 4.938 1.957c0 2.142-2.044 3.65-4.938 4.54v.283c-.356 6.125-3.181 9.148-7.527 9.148s-7.092-3.003-7.468-8.942v-.685c-2.746-.979-4.652-2.456-4.652-4.54l4.761-1.957v-.89c0-4.076 3.332-7.38 7.443-7.38s7.442 3.304 7.442 7.38zm-13.83 20.41 4.515 28.04-5.344-.087-.316 4.119 15.152-.049-.118-3.816-4.998-.088 3.763-28.208c4.484.715 8.554 2.231 11.172 4.59 0 0 1.481 10.165 2.686 15.82s-7.793 13.933-7.793 13.933l1.827 43.578s-8.277 2.574-8.82-4.05c-.494-5.87-1.156-10.988-1.156-10.988l-8.515-.166s-.177 3.14-1.333 10.606-8.979 4.315-8.979 4.315l2.657-43.51s-9.63-7.427-8.168-13.894c1.294-5.694 3.052-15.576 3.052-15.576 2.34-2.28 6.272-3.826 10.717-4.57m4.304-12.126h4.096l1.023 2.132h-6.143zm-1.28-6.7H15.92l-.563 1.523h3.379z"/><path d="M15.92 11.877h2.253l.563 1.523h-3.379z"/></g><defs><clipPath id="a"><path d="M0 0h43v67H0z"/></clipPath></defs></svg>