<svg xmlns="http://www.w3.org/2000/svg" width="43" height="49" viewBox="0 0 43 49"><path fill-rule="evenodd" clip-rule="evenodd" d="m41.771 38.3-12.279 1.444-.205-9.948-5.034 7.21c0 1.138-.1 1.34-1.8 1.34s-2.067-.159-2.084-1.88l-5.38-6.73 1.67 24.726s-3.54 1.345-4.047-1.902-1.254-8.366-1.254-8.366H9.173s-1.197 6.037-1.41 8.625c-.241 2.919-3.829 1.78-3.829 1.78l.809-19.206s-3.999-3.657-3.466-6.15c.534-2.492 1.189-7.395 1.189-7.395 3.387-3.018 10.448-2.03 13.175-.315l6.663 12.734 5.532-12.074 8.246-1.755c2.867.224 3.553 1.169 5.244 7.21.541 1.906-1.49 3.515-2.84 4.343zm-8.433-27.357c3.85 0 3.845 3.57 3.845 6.9l-7.63 1.146c0-4.243-.065-8.05 3.785-8.05zm-27.245 3.47c-.616-4.846 7.34-5.812 7.34-.366 0 5.516-6.75 5.028-7.34.367M36.02 54.35l-4.081.185-1.228-12.48 6.467-.28z"/></svg>