<svg xmlns="http://www.w3.org/2000/svg" width="43" height="49" viewBox="0 0 43 49"><g clip-path="url(#a)"><path fill-rule="evenodd" clip-rule="evenodd" d="m29.868 58.264 1.217 27.816s-6.796 2.151-7.25-3.387c-.406-4.909-3.544-25.55-3.544-25.55l-2.417-.139s-2.292 18.989-3.26 25.23c-.97 6.243-7.666 3.608-7.666 3.608l1.4-21.867a13 13 0 0 1-2.534-2.258l1.051-8.59h2.21l.133-2.02s-7.55-6.202-6.324-11.618c.24-1.039.513-2.315.828-3.673a39 39 0 0 1-2.483-.982s.935-6.266 4.138-10.185c1.192-1.473 4.073-2.544 7.574-3.158v-3.559l-1.655-.392v-6.815c0-11.453 15.934-11.396 15.934-.196 0 1.848-.091 6.839-.091 6.839l-1.656.409v3.51c3.684.531 6.829 1.636 8.336 3.411 3.683 4.418 4.13 10.504 4.13 10.504-.977.385-2.003.737-3.063 1.056.249 1.268.489 2.454.696 3.403.629 2.945-1.855 6.733-3.816 9.179l-5.132-13.09-1.796.213-5.455-11.11-6.887 4.623 8.22 7.305-.77 1.636-5.521-.065c-1.283 4.761 3.998 3.534 4.966 3.526l.778 2.045a13.8 13.8 0 0 0-6.465 5.915l4.412 3.272c2.127-4.45 8.691-6.863 8.691-6.863l10.149 16.918 4.072-1.416.753 2.005-6.514 3.33zM24.43 10.3H14.183c-1.763 4.434 12.184 4.188 10.247 0"/></g><defs><clipPath id="a"><path d="M0 0h43v67H0z"/></clipPath></defs></svg>