<svg xmlns="http://www.w3.org/2000/svg" width="43" height="49" viewBox="0 0 43 49"><path fill-rule="evenodd" clip-rule="evenodd" d="M29.723 43.523c-1.557 2.664-6.37 5.616-6.37 5.616s-4.53-2.648-6.189-5.151c-1.222-1.825-2.037-6.175-2.391-8.361C8.493 34.058 3.6 30.487 3.6 24.95c0-4.345 3.044-3.174 9.131-1.938l20.484.24c6.279-1.335 8.556-3.084 8.556 1.273 0 5.344-4.25 8.886-9.913 10.664-.233 1.913-.937 6.278-2.135 8.333M15.555 27.707a30 30 0 0 0 .676 5.926l5.933-2.484 1.944.089 5.888 2.283c.34-1.876.524-3.776.546-5.681zM15.49 13.16l14.885-.065 1.87 7.976-18.744-.064zm-2.037 24.545.31 1.605c-1.924 3.671-6.594 5.16-12.534 2.905l6.323-2.717-4.408-1.604c1.76-2.331 8.516-1.854 10.313-.189zm5.48 11.9-14.045.036-.498-3.097 9.022-3.21zm22.818-3.13-.55 3.074-13.283.056 5.032-6.187z"/></svg>