<svg xmlns="http://www.w3.org/2000/svg" width="43" height="49" viewBox="0 0 43 49"><path fill-rule="evenodd" clip-rule="evenodd" d="m32.847 44.072-2.08 2.132 2.572 1.28L36 45.336l4.288 1.743-1.131 2.908-12.12.046-3.168 3.24-4.033.327-3.87-3.567-12.158.031-.848-2.776 3.773-1.612 2.626 2.151 2.711-1.376-2.243-2.048v-.035l2.247-8.961C4.792 33.649 1.229 29.9 1.229 26.349c11.755-1.859 10.12-10.3 16.016-12.922l3.27 5.283 1.982-.656 3.211-4.654c6.097 2.545 4.76 10.928 16.063 12.999 0 3.494-3.52 7.327-10.977 9.093zm-13.278-5.82 4.853-.042c1.55-2.44-5.132-2.267-5.132-2.267zm-2.351-10.314-2.893.239v7.747l4.787-2.437h4.908zm11.426-.949-5.922.49 5.922 5.202z"/></svg>