<svg xmlns="http://www.w3.org/2000/svg" width="43" height="49" viewBox="0 0 43 49"><g clip-path="url(#a)"><path fill-rule="evenodd" clip-rule="evenodd" d="M41.162 56.983c1.188 4.869-3.862 5.481-3.862 5.481l-3.651-10.901a75.9 75.9 0 0 1-24.102.054l-3.66 10.847s-5.05-.612-3.861-5.481c.344-1.404.97-3.877 1.696-6.777-.875-.287-1.72-.59-2.493-.93 0 0 3.705-12.182 6.715-15.896 1.126-1.396 3.854-2.419 7.169-3l5.074 12.809h2.415l5.355-12.856c3.034.55 5.567 1.55 6.849 3.101 3.533 4.18 6.965 16.012 6.965 16.012-.719.287-1.508.543-2.345.775a326 326 0 0 1 1.736 6.762M22.798 29.534l1.657 2.908-3.127 6.645-2.705-6.645 1.415-2.954zm4.901-9.669c-1.227 6.39-8.044 8.367-11.077 4.226l-5.535 3.916-4.69-4.226 4.47-3.101 1.51 3.396 3.26-1.877a10.7 10.7 0 0 1-.493-3.365c0-.667.068-1.332.203-1.985-1.946.496-3.361-1.744-3.361-1.744l4.174-2.234c2.596-7.164 13.228-4.93 12.165 2.784l2.58 3.358s-1.853 1.876-3.206.852m3.69 35.567 1.29 36.148s-6.543 2.047-6.98-3.203a213 213 0 0 0-.908-8.707l-6.747-.132s-.132 2.49-1.055 8.397c-.922 5.909-7.106 3.427-7.106 3.427l1.892-35.891z"/></g><defs><clipPath id="a"><path d="M0 0h43v67H0z"/></clipPath></defs></svg>