<svg xmlns="http://www.w3.org/2000/svg" width="43" height="49" viewBox="0 0 43 49"><defs><clipPath id="a"><path d="M0 0h43v67H0z"/></clipPath></defs><g clip-path="url(#a)"><path fill-rule="evenodd" clip-rule="evenodd" d="m36.202 40.661-6.748-2.334L31.31 73.73s-4.38 1.45-4.926-2.317a370 370 0 0 0-.691-4.636l-4.948-.095s0 .28-.624 4.417c-.613 4.221-5.207 2.469-5.207 2.469l2.35-39.468-8.473-2.939-.253-14.164-7.31-9.354 1.125-.638 8.788 9.242c.488.582.83 1.27.995 2.01.186 1.21 1.322 8.677 1.322 8.677l5.977 1.215 2.772 16.599-2.947-.056-.18 2.85 8.654-.045-.062-2.67-2.812-.051 1.822-14.964 8.384 4.479 4.897-5.319s3.059 1.68 1.22 4.272-4.981 7.417-4.981 7.417m-17.29-19.476c0-7.48 9.935-6.354 9.097.297-.804 6.404-9.097 7.272-9.097-.297"/><path d="M10.348 11.924a2.2 2.2 0 0 1-1.46-.892 2.04 2.04 0 0 1-.392-1.619 2.05 2.05 0 0 1 .912-1.397 2.22 2.22 0 0 1 1.676-.361q.319.054.577.173.258.12.482.308l.97-5.63 3.33.564-.367 2.135-2.22-.376-.92 5.337a2.05 2.05 0 0 1-.912 1.397 2.22 2.22 0 0 1-1.676.361"/></g></svg>