<svg xmlns="http://www.w3.org/2000/svg" width="43" height="49" viewBox="0 0 43 49"><path fill-rule="evenodd" clip-rule="evenodd" d="M37.893 40.48c1.155 2.47-1.467 3.984-2.642 4.061l-2.326-4.092-2.045 1.033.864 22.82s-5.203 1.364-5.5-2.135l-.108-1.317-6.556.057s0 .568-.067.982c-.52 3.906-5.562 2.283-5.562 2.283l.75-24.039-2.815-1.798-.255-11.296 2.601-3.37a12.3 12.3 0 0 1 3.902-1.033l.296 5.121.989.14.359 5.59.994-.149 1.56 7.12 1.041-.655 1.306-5.98 1.17-.056.744-6.79.87-.393.337-3.958c1.723.258 3.122.687 3.746 1.307l6.847 13.72-1.436.734c.421.95.765 1.72.936 2.093M12.531 16.497l6.529-3.927c.52-3.426 5.333-9.73 7.46-10.134l.287 9.87 7.122 4.568c-2.903 1.943-18.927 2.02-21.398-.377m-2.778 1.55.244 46.229-3.06.052.157-24.66c-1.243-.785-3.32-2.64-1.134-5.364.27-.33.676-.847 1.17-1.472l.078-14.521-2.6-4.33L5.84 10h.942l.9 3.442h.817l1.123-2.811-1.956-3.504.671-.604 4.069 3.498-.812 4.408z"/></svg>