<svg width="43" height="49" viewBox="0 0 43 49" xmlns="http://www.w3.org/2000/svg"><path fill-rule="evenodd" clip-rule="evenodd" d="M37.723 25.635h-1.975c-.532 3.514-3.578 6.208-7.257 6.208s-6.724-2.694-7.256-6.208H21a7.334 7.334 0 0 1-7.188 5.82 7.334 7.334 0 0 1-7.187-5.82H4.97l.011.129h-.067v6.977l10.222 8.93h12.079l10.564-8.797v-7.11h-.067zm-.011-2.845c-.755-8.338-7.794-14.872-16.366-14.872S5.736 14.452 4.982 22.79H6.6a7.33 7.33 0 0 1 7.212-5.948 7.33 7.33 0 0 1 7.213 5.948h.338a7.336 7.336 0 0 1 7.128-5.56 7.336 7.336 0 0 1 7.129 5.56zM4.914 59.386v-22.41l8.704 7.603v14.807zm32.865 0h-8.834V44.38l8.834-7.356zM26.66 27.97a2.074 2.074 0 0 0 2.08-2.07c0-1.143-.93-2.069-2.079-2.069a2.074 2.074 0 0 0-2.078 2.07c0 1.142.93 2.068 2.078 2.068M14.3 25.651c0 1.143-.93 2.07-2.078 2.07a2.074 2.074 0 0 1-2.078-2.07c0-1.143.93-2.069 2.078-2.069s2.078.926 2.078 2.07"/></svg>