<svg xmlns="http://www.w3.org/2000/svg" width="43" height="49" viewBox="0 0 43 49"><path fill-rule="evenodd" clip-rule="evenodd" d="m36.812 32.34-2.316-2.59-1.523-.571c1.252 4.058 1.106 7.517-.025 11.704 2.429 3.164 4.252 10.57 4.252 10.57l-9.505.583.388-5.237-2.453-.542-4.368 5.378-7.732.447a168 168 0 0 1 .547-4.084c-5.808-.77-13.99-7.36-9.905-21.276l3.85.198-1.79 3.26c-.084.842-.066 1.69.055 2.528l2.892.054-1.09 4.302c.372.49.792.94 1.252 1.349l2.47-1.547 1.707 3.69a8.2 8.2 0 0 0 1.74.19c.32-1.791.663-3.624 1.03-5.465l-2.39-4.526 2.828-2.614-2.382-4.315 3.872-2.896-2.295-3.926 4.393-2.71-1.017-3.512 4.272-1.606c1.669-3.375 3.98-5.175 9.212-4.881l1.648 5.791-6.316.207-1.252 1.755 4.806.12-3.004 7.901a56 56 0 0 1 3.05 5.792l4.173.596 3.713.534.33 4.885-1.924-1.332zm-6.442-2.441-4.79.132-4.786-1.315-.496 2.651 4.744.993 2.086 2.437 1.193-1.828 2.203 1.075z"/></svg>