<svg xmlns="http://www.w3.org/2000/svg" width="43" height="49" viewBox="0 0 43 49"><path fill-rule="evenodd" clip-rule="evenodd" d="m2.183 49.536-.914-3.751c9.398-8.443 30.302-13.218 40.502-8.959-6.981 9.366-26.749 14.684-39.588 12.71m24.592-27.012c-2.387.28-8.667 1.035-8.667 1.035l2.52 5.226-.148 6.692-3.392 1-.372-3.73-6.093 2.839-.271 3.195-2.737 1.21-.485-6.69 6.144-3.954-2.192-4.128s-5.28 2.798-6.928 3.656-2.925-.858-2.925-.858 6.374-4.828 7.983-6.065c1.404-1.079 4.821-1.728 7.19-1.728h11.154s1.304 2.055-.781 2.3M8.623 17.24c-.444-3.494 5.29-4.19 5.29-.264 0 3.969-4.865 3.62-5.29.258z"/></svg>