<svg xmlns="http://www.w3.org/2000/svg" width="43" height="49" viewBox="0 0 43 49"><defs><clipPath id="a"><path fill="#fff" d="M0 0h43v67H0z"/></clipPath></defs><g clip-path="url(#a)"><path fill-rule="evenodd" clip-rule="evenodd" d="M37.466 73.529s-5.594 2.18-6.412-3.083c-.817-5.264-2.339-21.56-2.339-21.56l-2.057.12s-2.206 17.63-2.551 21.831c-.395 4.733-6.292 2.894-6.292 2.894l1.55-33.968 12.43.126 2.183-2.992-14.486.196.282-6.208-5.933 10.22v11.29c-2.86 1.161-2.438-6.158-2.438-6.158l-.655-.203-2.495 6.928c-3.008-1.189.402-8.347.402-8.347l-.627-.35-4.636 5.236c-2.502-3.376 4.516-8.388 4.516-8.388l-6.68-3.28c1.572-1.887 6.723-.307 8.52.323l6.601-17.324a13.8 13.8 0 0 1 5.877-2.88c2.367 3.447 8.687 3.426 10.977-.154a11.6 11.6 0 0 1 5.426 2.475s2.304 9.787 3.079 13.905c.57 3.013-2.818 6.739-5.299 8.997zM19.682 33.15l15.776.147-.042-2.992-15.593.217zm15.776-9.437-15.593.286-.077 2.517 15.846.189zM32.33 9.892l-2.044 5.32-5.397.797-2.114-6.173c-2.818-.7-4.868-2.055-4.868-4.062l4.537-1.265L24.254 0l6.8.084 1.832 4.67 4.263 1.202c0 1.95-2.057 3.265-4.82 3.936"/></g></svg>