<svg xmlns="http://www.w3.org/2000/svg" width="43" height="49" viewBox="0 0 43 49"><path fill-rule="evenodd" clip-rule="evenodd" d="m36.05 30.377-1.281-.166-1.482.445-.863 4.297c-5.19 1.17-8.859.28-11.09-.725l-3.105.93.342 1.073 4.131 1.225c1.015 3.496-4.43 2.524-6.611 2.513-3.702 1.075-2.465 3.32-5.646 4.222-8.142 2.304-12.685-12.509-5.97-15.71-.494-1.386-.663-2.642-.18-3.491.934-1.66 2.807-4.48 2.807-4.48a7.5 7.5 0 0 1 2.106-1.401l-.076-1.434 3.175-1.611 3.8 15.29 17.555-5.107.412-1.042 6.514-1.359 1.183 4.216zM17.594 18.239l4.375-3.067.793.435-.06 3.018a9.7 9.7 0 0 1 3.382 1.848s.738 2.353 1.525 4.834l-10.335 3.459zm3.529-7.52c-.739 5.812-9.12 6.413-9.12-.456 0-4.689 1.585-6 10.156-6 .961 2.74.826 5-1.042 6.478zm2.93 31.103 2.644 18.637-8.142.065-1.297-18.433h.038c1.335.016 4.576.3 6.752-.247zM8.405 46.903a10.8 10.8 0 0 0 2.948-.397c2.714-.741 2.367-2.47 4.223-3.69l-.76 17.724-8.142.065z"/></svg>