<svg xmlns="http://www.w3.org/2000/svg" width="43" height="49" viewBox="0 0 43 49"><defs><clipPath id="a"><path d="M0 0h43v67H0z"/></clipPath></defs><g clip-path="url(#a)"><path fill-rule="evenodd" clip-rule="evenodd" d="m11.554 20.314-2.93 1.61-3.388-7.788-3.575.097-.432-1.77 6.53-2.204zm10.513-1.649c-2.661 0-4.604-1.36-5.55-4.022l-2.54-1.23v-2.527c0-11.262 16.17-11.206 16.17-.193v2.751l-2.514 1.19c-.971 2.688-2.93 4.031-5.566 4.031M8.19 25.953c.873-1.078 2.677-1.938 4.962-2.558l-1.248 15.622 2.938 4.827 2.122-21.237c7.183-.982 16.325-.08 19.271 3.354 3.714 4.36 4.155 10.346 4.155 10.346-.702.273-1.429.53-2.172.804a1501 1501 0 0 1 3.363 13.322c1.241 5.051-4.032 5.687-4.032 5.687l-5.868-17.448-.18.04.686 15.244h1.763l.963 8.414a13.4 13.4 0 0 1-2.261 1.987l.171 3.854h1.967l.882 8.64a13.5 13.5 0 0 1-2.383 1.914l.342 7.626s-6.7 2.116-7.15-3.33c-.4-4.827-3.493-25.123-3.493-25.123l-2.384-.137s-2.26 18.671-3.215 24.81c-.955 6.137-7.559 3.547-7.559 3.547l.498-7.763a13 13 0 0 1-2.097-2.067l1.053-8.198h1.697l.278-4.295a11.6 11.6 0 0 1-2.122-2.655l1.224-7.304h1.534l.131-1.98S4.575 45.8 5.791 40.475c.229-1.022.506-2.277.816-3.612a39 39 0 0 1-2.448-.966c-.025.056.89-6.09 4.032-9.943"/></g></svg>