<svg xmlns="http://www.w3.org/2000/svg" width="43" height="49" viewBox="0 0 43 49"><path fill-rule="evenodd" clip-rule="evenodd" d="m31.369 56.62-1.237-13.493 6.904.301-1.311 13.391zm7.199-23.741-.224 8.059-13.11-1.542 3.488-6.776c-1.433-.89-3.59-2.611-3.035-4.662.738-2.73 1.868-6.545 1.868-6.545l2.334-1.204c2.068 1.463 5.85 1.45 7.6.08l2.031 1.092s1.302 3.934 2.143 6.554c.653 1.958-1.802 4.018-3.095 4.944M33.432 9.535c4.113 0 4.038 4.199 4.038 8.18h-8.146c-.014-3.593-.019-8.18 4.094-8.18zM16.64 36.262l.86 20.618s-3.829 1.217-4.09-1.917c-.23-2.777-1.998-14.456-1.998-14.456l-1.364-.079S8.76 51.172 8.21 54.704s-4.323 2.041-4.323 2.041l1.275-20.589S.609 32.647 1.3 29.583c.593-2.685 1.428-7.365 1.428-7.365 1.14-1.125 3.072-1.851 5.252-2.208l2.96 4.166 2.95-4.166c2.073.343 3.95 1.056 5.164 2.148 0 0 .695 4.81 1.265 7.485s-3.679 6.62-3.679 6.62M6.935 13.405c0-5.846 8.5-4.81 7.843.393-.635 5.004-7.843 5.527-7.843-.393"/></svg>