<svg xmlns="http://www.w3.org/2000/svg" width="43" height="49" viewBox="0 0 43 49"><path d="m19.538 38.935 2.255-.916.071.171.854 2.065-2.256.916-.883-2.136zm4.062-2.014 2.255-.916.254.614.67 1.622-2.254.916-.7-1.692zm4.875-2.013 2.255-.917.33.797.594 1.44-2.255.916-.625-1.51zm4.468-2.014 2.255-.917.459 1.11.465 1.126-2.255.917-.495-1.197z" fill="rgba(186, 186, 186, 1)"/><path fill-rule="evenodd" clip-rule="evenodd" d="M11.032 33.8c2.836 26.227 40.43 22.17 28.357-6.909-.258-.622-1.47-2.698-2.703-4.457-.884-1.262-1.622-2.79-1.098-4.237.708-1.953 2.311-2.757 3.801-2.914 2.14-.225 1.702-2.128 1.215-3.052-1.944-3.567-5.094-2.651-4.942-.16.093 1.521-.615 3.549-1.757 4.676-.793.782-1.995.371-2.885-.301-9.159-6.925-19.252-1.571-20.475 8.384-.139 1.13-.466 2.512-1.614 2.485-1.228-.028-2.787-.963-3.895-1.91-3.24-2.771-3.808-.281-3.807 1.807 0 3.414 2.981 3.397 3.807 2.53 1.351-1.416 2.919-.95 4.137-.147 1.158.764 1.68 2.139 1.8 3.513zm6.475 6.002 2.072-.767.883 2.136 2.256-.916-.854-2.065 1.96-.725.7 1.692 2.256-.916-.67-1.621 2.665-.986.624 1.51 2.255-.917-.595-1.439 2.313-.855.495 1.197 2.255-.917-.465-1.126 1.86-.687 1.519 4.084-17.476 10.72z"/></svg>