<svg xmlns="http://www.w3.org/2000/svg" viewBox="0 0 48 48" xml:space="preserve"><circle cx="13.7" cy="29.3" r="2.7"/><circle cx="34.3" cy="29.3" r="2.7"/><path d="M35 23.4c0-9.3-22-6.1-22 0V32c0 6.1 4.9 11 11 11s11-4.9 11-11z"/><path d="M34 25.5h3v3.1l-3 2zm-20 0h-3v3.1l3 2z"/><path d="M14 21.2c-.7.7-1 1.4-1 2.2V32c0 6.1 4.9 11 11 11 0-2.7 2.4-2.1 2.4-3.5 0-.9-4.9-.5-4.9-1.4 0-1.4 2.7-1.1 5-1.1.6 0 .8-.9 0-.9-3 0-1.3-2 0-3.5.8-2.2 6.1-2.6 8.5-.5v-8.6c0-.8-.2-1.6-.5-2.2H14z"/><ellipse cx="24" cy="22" rx="21" ry="7"/><path d="M29.5 4c-2.1 0-3.2 1.1-5.5 1.1S20.8 4 18.5 4c-4.1 0-6 9.6-7.5 15.7 0 3.7 8.2 4 13 4s13-.1 13-4C35.2 13.2 33.6 4 29.5 4"/><path fill="#bababa" d="M24 18.7c-3.9 0-10-.2-12.2-2.2-.3 1.1-.6 2.2-.8 3.2 0 3.7 8.2 4 13 4s13-.1 13-4c-.3-1-.6-2.1-.9-3.1-2.2 2-8.2 2.1-12.1 2.1"/></svg>