<svg xmlns="http://www.w3.org/2000/svg" width="43" height="44" viewBox="0 0 43 44"><path d="M3.849 6.469c1.033 1.643 3.1 4.965 3.1 5.1L.92 14.972l5.339 1.19-2.067 5.271 7.577-4.25h20.32l7.405 4.25-2.41-5.271 4.994-2.55-5.855-3.061 2.755-6.122-6.888 2.04-1.722-6.29c-1.55 1.586-4.719 4.896-4.994 5.44-.276.545-2.985-3.4-4.305-5.44-1.091 1.7-3.307 5.168-3.445 5.44-.172.34-7.06-4.42-7.405-4.59-.344-.17 1.034 6.12 1.034 6.631 0 .408-4.937-.623-7.405-1.19"/><path d="M6.26 26.703v-4.25l5.855-3.232H32.09l5.855 3.231v4.251z"/><path fill-rule="evenodd" clip-rule="evenodd" d="M6.432 28.574h31.514c2.755 4.76-1.206 8.671-3.444 8.501.826 1.905-1.78 6.008-2.928 7.142-2.41 2.38-7.922 4.931-9.3 4.931-1.376 0-6.543-2.777-9.47-4.931-1.55-1.14-2.813-4.704-3.1-6.631-2.41.51-7.233-4.932-3.272-9.012m14.007 5.171-6.65-2.809-.813 1.876 2.584 1.092c-.51.39-.862 1.198-.862 2.134 0 1.314.694 2.38 1.55 2.38s1.55-1.066 1.55-2.38c0-.477-.091-.921-.249-1.294l2.077.877zm9.794-1.964-6.927 2.054.593 1.954 1.546-.458q-.069.335-.07.707c0 1.315.694 2.38 1.55 2.38s1.55-1.065 1.55-2.38c0-.57-.13-1.093-.348-1.503l2.7-.8z"/></svg>