<svg xmlns="http://www.w3.org/2000/svg" width="43" height="49" viewBox="0 0 43 49" fill="#000"><path fill-rule="evenodd" clip-rule="evenodd" d="m41.188 49.558-17.938.052 9.758-8.475 8.763 3.117zM30.876 38.95l-6.414 6.033-5.265-.052-1.282-1.193-4.579 5.871-11.568.03-.54-5.335 12.506-4.46-1.278-1.184-.128-5.998-1.354-4.595.128-4.433 2.044-4.679-.628-6.774 2.508.048 1.654 4.174 1.181-4.117 1.558.03 1.822 2.368 1.367-2.306 8.126.158-.792 6.139 2.075 4.143.106 5.516-1.066 4.332zm-10.984 3.508h3.946l4.711-4.486.035-2.815-7.418-2.43-6.193 2.987.146 2.63zm-5.06-9.186.035.648 3.693-2.038-4.627-1.517zm15.04-10.7-1.96-2.02c-2.902 1.872-9.502 1.7-12.598-.018l-2.049 2.824v.381l16.722 1.934zm.234 5.232-16.81-2.232v2.679l15.328 4.85v-.057l1.509-4.451z" fill="#000"/></svg>