<svg xmlns="http://www.w3.org/2000/svg" width="43" height="49" viewBox="0 0 43 49"><path d="M22.662 31.183c0 .57-.466 1.033-1.042 1.033a1.037 1.037 0 0 1-1.041-1.033c0-.57.466-1.033 1.041-1.033.576 0 1.042.462 1.042 1.033m-10.136 0c0 .57-.466 1.033-1.041 1.033a1.037 1.037 0 0 1-1.042-1.033c0-.57.466-1.033 1.042-1.033.575 0 1.041.462 1.041 1.033"/><path fill-rule="evenodd" clip-rule="evenodd" d="M10.967 9.762 8.862 24.268c-4.315 2.817-3.578 9.287-.526 10.957l-1.79 6.053c4.245.765 13.577 2.003 16.945.834.526.696 1.6 2.13 1.684 2.296.105.209-9.367 1.252-10.735.835.456.87 1.263 1.774 2.736 1.878.176.696.463 2.275.21 3.027l11.639-.203c-.307-1.218-.482-5.328.991-7.937 2.316.104 4.315-3.652 1.053-5.53 1.263-6.714 4.188-20.412 5.788-21.498l-2.947.94-.631-2.505-1.684.94-.526-2.61-2.105 1.67-.947-2.818-2.21 1.67-1.053-2.505-1.894 1.67-1.263-2.296-1.79 2.296-1.368-2.296-2.105 2.296-1.578-2.296-1.474 2.61zm1.79 24.837c1.648 0 3.11-.8 4.008-2.03a4.85 4.85 0 0 1-.794-2.666c0-1.073.348-2.066.938-2.874a4.95 4.95 0 0 0-4.153-2.24c-2.732 0-4.946 2.196-4.946 4.905s2.214 4.905 4.946 4.905m-1.272-2.383c.575 0 1.041-.463 1.041-1.033s-.466-1.033-1.041-1.033c-.576 0-1.042.462-1.042 1.033 0 .57.466 1.033 1.042 1.033m15.69-2.104c0-2.667-2.146-4.836-4.82-4.903l-.127-.002c-2.162 0-4 1.376-4.673 3.293a4.87 4.87 0 0 0-.126 2.806 4.93 4.93 0 0 0 3.361 3.5c.455.137.938.21 1.438.21 2.732 0 4.947-2.195 4.947-4.904m-4.513 1.07c0 .571-.466 1.034-1.042 1.034a1.037 1.037 0 0 1-1.041-1.033c0-.57.466-1.033 1.041-1.033.576 0 1.042.462 1.042 1.033"/></svg>