<svg xmlns="http://www.w3.org/2000/svg" width="43" height="49" viewBox="0 0 43 49"><path fill-rule="evenodd" clip-rule="evenodd" d="M30.391 32.259a28.7 28.7 0 0 1-.414 5.698l10.367 7.087-1.805 4.219-7.407.02-3.514-6.789a21 21 0 0 1-3.641 2.992l-5.049-.05a21 21 0 0 1-3.402-2.664l-3.124 6.564h-8.69l-1.345-4.018 10.325-7.067c-.696-2.133-.874-4.668-.915-7.995-2.948.27-5.841.96-8.591 2.044l-1.957-2.22c5.164-3.298 4.696-19.725 18.787-19.725 3.489 0 6.286.678 8.554 1.806l-3.215 6.156c-4.225-.307-5.856 6.266-1.523 7.41 4.233 1.124 6.141-3.127 4.577-5.673l2.872-6.156c7.614 6.164 7.275 18.394 10.49 20.437l-1.655 2.244a45 45 0 0 0-9.725-4.32m-16.4-2.175c.07 7.407.704 9.917 5.628 13.08l3.55.053c4.354-2.922 4.996-5.362 5.09-11.563a47.7 47.7 0 0 0-14.268-1.57"/></svg>