<svg xmlns="http://www.w3.org/2000/svg" width="43" height="49" viewBox="0 0 43 49"><g clip-path="url(#a)"><path fill-rule="evenodd" clip-rule="evenodd" d="m33.867 62.198 1.827 43.596s-8.11 2.574-8.653-4.052c-.493-5.873-4.227-30.568-4.227-30.568l-2.884-.167s-2.736 22.718-3.892 30.187c-1.156 7.468-9.147 4.316-9.147 4.316l2.657-43.527s-9.63-7.43-8.168-13.9c1.294-5.696 3.052-15.582 3.052-15.582 2.183-2.154 5.739-3.642 9.818-4.444l5.275 8.212.8-8.81 3.486.06.751 8.946 5.433-8.203a20.2 20.2 0 0 1 8.979 4.17s1.481 10.17 2.686 15.828-7.793 13.938-7.793 13.938M13.33 13.864c0-12.362 17.988-10.17 16.595.832-1.334 10.58-16.595 11.677-16.595-.832"/></g><defs><clipPath id="a"><path d="M0 0h43v67H0z"/></clipPath></defs></svg>