<svg xmlns="http://www.w3.org/2000/svg" width="512" height="288" viewBox="0 0 512 288" fill="none"><path fill="#041223" d="M0 0h512v288H0z"/><path d="M200.912 153.982v37.514c0 6.897 5.612 12.504 12.504 12.504h90.033c6.897 0 12.504-5.607 12.504-12.504v-37.514zm54.349-58.546-18.717 4.442 15.681 23.073 20.272-4.612zm-23.918 5.677-20.173 4.782 15.516 22.858 20.302-4.617zm84.53 4.712-4.256-16.146c-.981-3.926-5.002-6.397-8.969-5.492l-16.806 3.992 15.946 23.508 12.219-2.781a2.5 2.5 0 0 0 1.586-1.145c.35-.58.45-1.276.28-1.936m-35.238-16.411-20.062 4.762 17.266 22.953 18.712-4.257zm-54.519 39.564-8.003 20.002h19.622l8.003-20.002zm25.009 0-8.003 20.002h19.622l8.003-20.002zm62.327 0h-12.309l-8.003 20.007h22.813v-17.506a2.496 2.496 0 0 0-2.501-2.501m-37.318 0-8.003 20.002h19.617l8.008-20.002zm-70.165-21.843-4.077.966a7.45 7.45 0 0 0-4.732 3.386 7.45 7.45 0 0 0-.885 5.752l4.637 18.326v13.415h11.814l7.508-18.762 1.22-.275z" opacity=".2" fill="#B1B1B1"/></svg>