<svg data-v-7e4717e0="" xmlns="http://www.w3.org/2000/svg" width="32" height="12" fill="none" viewBox="0 0 32 12"><g fill="currentColor"><path d="M0 0v12h3.333V0H0ZM10.448 0l-.746 5.606-.463-3.05A84.114 84.114 0 0 0 8.852 0H4.667v12h2.827l.011-7.924L8.695 12h2.014l1.13-8.099.008 8.099h2.82V0h-4.219ZM16 12V0h5.203c1.177 0 2.13.947 2.13 2.118v7.764c0 1.17-.952 2.118-2.13 2.118H16Zm3.888-9.84c-.132-.072-.385-.106-.753-.106v7.874c.486 0 .785-.088.897-.27.112-.18.17-.667.17-1.467V3.54c0-.543-.02-.89-.058-1.043a.49.49 0 0 0-.256-.336ZM29.62 3.005h.213c1.197 0 2.167.937 2.167 2.092v4.811C32 11.063 31.03 12 29.833 12h-.213c-.732 0-1.38-.35-1.772-.888l-.192.734h-2.99V0h3.19v3.854a2.258 2.258 0 0 1 1.764-.85Zm-.683 5.851V6.013c0-.47-.03-.778-.093-.92-.063-.142-.314-.233-.49-.233-.175 0-.447.074-.5.198v4.814c.06.137.32.213.5.213.181 0 .445-.074.5-.213.055-.14.083-.48.083-1.016Z"></path></g></svg>