<svg width="200" height="300" viewBox="0 0 200 300" fill="none" xmlns="http://www.w3.org/2000/svg"><g clip-path="url(#a)"><path d="M194.94 0H5.06A5.06 5.06 0 0 0 0 5.06v289.88A5.06 5.06 0 0 0 5.06 300h189.88a5.06 5.06 0 0 0 5.06-5.06V5.06A5.06 5.06 0 0 0 194.94 0" fill="#020C17"/><path d="M99.66 153.477h.622c5.707-.097 10.323-2.103 13.731-5.94 7.499-8.453 6.252-22.943 6.116-24.326-.487-10.381-5.395-15.347-9.446-17.665-3.019-1.733-6.545-2.668-10.479-2.746h-.331c-2.161 0-6.407.35-10.478 2.668-4.09 2.318-9.076 7.284-9.563 17.743-.136 1.383-1.383 15.873 6.116 24.326 3.388 3.837 8.004 5.843 13.711 5.94m-14.628-29.779c0-.059.02-.117.02-.156.642-13.965 10.556-15.464 14.802-15.464h.234c5.258.117 14.198 2.259 14.802 15.464 0 .059 0 .117.019.156.019.136 1.383 13.38-4.811 20.353-2.454 2.765-5.726 4.129-10.03 4.168h-.195c-4.285-.039-7.576-1.403-10.01-4.168-6.175-6.934-4.85-20.236-4.83-20.353" fill="#27323F"/><path d="M139.994 177.511v-.058c0-.156-.019-.312-.019-.487-.117-3.857-.37-12.874-8.823-15.757-.058-.019-.136-.039-.194-.058-8.784-2.24-16.088-7.304-16.166-7.362a2.625 2.625 0 0 0-3.661.642 2.626 2.626 0 0 0 .642 3.662c.331.234 8.083 5.629 17.782 8.122 4.538 1.616 5.045 6.466 5.181 10.906 0 .176 0 .332.02.487.019 1.753-.098 4.461-.41 6.019-3.155 1.791-15.522 7.985-34.336 7.985-18.736 0-31.182-6.213-34.356-8.005-.312-1.558-.448-4.265-.41-6.018 0-.156.02-.312.02-.487.136-4.441.643-9.29 5.18-10.907 9.7-2.493 17.451-7.907 17.782-8.122a2.626 2.626 0 0 0 .643-3.661 2.627 2.627 0 0 0-3.661-.643c-.078.059-7.343 5.122-16.166 7.362a2 2 0 0 0-.194.059c-8.453 2.902-8.706 11.919-8.823 15.756 0 .175 0 .331-.02.487v.058c-.019 1.013-.039 6.214.993 8.823a2.5 2.5 0 0 0 1.013 1.227c.585.39 14.588 9.31 38.018 9.31s37.434-8.94 38.018-9.31c.448-.292.818-.72 1.013-1.227.974-2.59.954-7.79.934-8.803" fill="#27323F"/></g><defs><clipPath id="a"><path fill="#fff" d="M0 0h200v300H0z"/></clipPath></defs></svg>