<svg xmlns="http://www.w3.org/2000/svg" width="60" height="36" fill="none" viewBox="0 0 60 36"><rect width="59" height="35" x=".5" y=".5" stroke="currentColor" rx="9.5"/><path fill="currentColor" fill-rule="evenodd" d="M17.433 10.099A1 1 0 0 1 18 11v14a1 1 0 0 1-1.625.78L11.65 22H8a1 1 0 0 1-1-1v-6a1 1 0 0 1 1-1h3.65l4.725-3.78a1 1 0 0 1 1.058-.121M16 13.08l-3.375 2.7A1 1 0 0 1 12 16H9v4h3a1 1 0 0 1 .625.22L16 22.92zm8.363-2.857a1 1 0 0 1 1.414 0 11 11 0 0 1 0 15.554 1 1 0 1 1-1.414-1.414 9 9 0 0 0 0-12.726 1 1 0 0 1 0-1.415Zm-3.53 3.53a1 1 0 0 1 1.414 0 6 6 0 0 1 0 8.484 1 1 0 1 1-1.414-1.414 4 4 0 0 0 0-5.656 1 1 0 0 1 0-1.415Z" clip-rule="evenodd"/><path fill="currentColor" d="M39.976 23.154q-1.4 0-2.45-.868-1.036-.868-1.092-2.17h1.988q.126.504.546.826.434.322 1.008.322.727 0 1.134-.434.42-.448.42-1.106 0-.672-.434-1.106-.42-.434-1.092-.434-.575 0-.98.28a1.5 1.5 0 0 0-.574.756l-1.694-.518 1.12-5.642h4.844v1.862h-3.36l-.378 1.862q.532-.336 1.372-.336 1.4 0 2.24.952.855.952.854 2.478 0 1.485-.966 2.38-.952.896-2.506.896m5.982-.042a1.35 1.35 0 0 1-.994-.406 1.35 1.35 0 0 1-.406-.994q0-.588.406-.994.405-.405.994-.406.574 0 .98.42.42.405.42.98c0 .575-.14.714-.42.994q-.406.406-.98.406M49.394 23v-8.05h-2.1l1.4-1.89h2.618V23z"/></svg>