<svg height="24" viewBox="0 0 24 24" width="24" xmlns="http://www.w3.org/2000/svg"><g style="display:inline"><path d="M85 415.6c-1.645 0-3 1.355-3 3v8.099c0 1.645 1.355 3 3 3h8c1.563 0 2.85-1.227 2.977-2.76l3.433 1.969c1.112.637 2.59-.219 2.59-1.5v-9.518c0-1.28-1.478-2.137-2.59-1.5l-3.433 1.969c-.126-1.533-1.414-2.76-2.977-2.76Zm8 2c.571 0 1 .428 1 1v8.099c0 .571-.429 1-1 1h-8c-.571 0-1-.429-1-1v-8.1c0-.571.425-1 .996-1zm7 .759v8.582l-4-2.293v-3.998Z" style="color:#000;font-style:normal;font-variant:normal;font-weight:400;font-stretch:normal;font-size:medium;line-height:normal;font-family:sans-serif;font-variant-ligatures:normal;font-variant-position:normal;font-variant-caps:normal;font-variant-numeric:normal;font-variant-alternates:normal;font-variant-east-asian:normal;font-feature-settings:normal;font-variation-settings:normal;text-indent:0;text-align:start;text-decoration:none;text-decoration-line:none;text-decoration-style:solid;text-decoration-color:#000;letter-spacing:normal;word-spacing:normal;text-transform:none;writing-mode:lr-tb;direction:ltr;text-orientation:mixed;dominant-baseline:auto;baseline-shift:baseline;text-anchor:start;white-space:normal;shape-padding:0;shape-margin:0;inline-size:0;clip-rule:nonzero;display:inline;overflow:visible;visibility:visible;opacity:1;isolation:auto;mix-blend-mode:normal;color-interpolation:sRGB;color-interpolation-filters:linearRGB;solid-color:#fff;solid-opacity:1;vector-effect:none;fill:#ffff;fill-opacity:1;fill-rule:nonzero;stroke:none;stroke-linecap:round;stroke-linejoin:round;stroke-miterlimit:4;stroke-dasharray:none;stroke-dashoffset:0;stroke-opacity:1;color-rendering:auto;image-rendering:auto;shape-rendering:auto;text-rendering:auto;stop-color:#000;stop-opacity:1" transform="translate(-80 -410.649)"/></g></svg>