<?xml version="1.0" ?><svg height="24" id="svg8" version="1.1" viewBox="0 0 24 24" width="24" xmlns="http://www.w3.org/2000/svg" xmlns:cc="http://creativecommons.org/ns#" xmlns:dc="http://purl.org/dc/elements/1.1/" xmlns:rdf="http://www.w3.org/1999/02/22-rdf-syntax-ns#" xmlns:svg="http://www.w3.org/2000/svg"><defs id="defs2"/><g id="g2071" style="display:inline" transform="translate(-80,-410.64902)"><path d="m 85,415.59922 c -1.6447,0 -3,1.3553 -3,3 v 8.09961 c 0,1.6447 1.3553,3 3,3 h 8 c 1.56263,0 2.85057,-1.22711 2.97656,-2.75977 l 3.4336,1.96875 c 1.11148,0.63715 2.58984,-0.21885 2.58984,-1.5 v -9.51758 c 0,-1.28114 -1.47836,-2.13714 -2.58984,-1.5 l -3.4336,1.96875 C 95.85057,416.82633 94.56263,415.59922 93,415.59922 Z m 8,2 c 0.5713,0 1,0.4287 1,1 -1.4e-4,2.69959 0,5.39871 0,8.09964 0,0.5713 -0.4287,1 -1,1 h -8 c -0.5713,0 -1,-0.4287 -1,-1 v -8.09961 c 0,-0.5713 0.42496,-1 0.99626,-1 2.67485,-6e-5 5.32888,-3e-5 8.00374,-3e-5 z m 7,0.75976 v 8.58204 l -4,-2.29297 V 420.65 Z" id="rect2060" style="color:#000000;font-style:normal;font-variant:normal;font-weight:normal;font-stretch:normal;font-size:medium;line-height:normal;font-family:sans-serif;font-variant-ligatures:normal;font-variant-position:normal;font-variant-caps:normal;font-variant-numeric:normal;font-variant-alternates:normal;font-variant-east-asian:normal;font-feature-settings:normal;font-variation-settings:normal;text-indent:0;text-align:start;text-decoration:none;text-decoration-line:none;text-decoration-style:solid;text-decoration-color:#000000;letter-spacing:normal;word-spacing:normal;text-transform:none;writing-mode:lr-tb;direction:ltr;text-orientation:mixed;dominant-baseline:auto;baseline-shift:baseline;text-anchor:start;white-space:normal;shape-padding:0;shape-margin:0;inline-size:0;clip-rule:nonzero;display:inline;overflow:visible;visibility:visible;opacity:1;isolation:auto;mix-blend-mode:normal;color-interpolation:sRGB;color-interpolation-filters:linearRGB;solid-color:#fff;solid-opacity:1;vector-effect:none;fill:#ffff;fill-opacity:1;fill-rule:nonzero;stroke:none;stroke-linecap:round;stroke-linejoin:round;stroke-miterlimit:4;stroke-dasharray:none;stroke-dashoffset:0;stroke-opacity:1;color-rendering:auto;image-rendering:auto;shape-rendering:auto;text-rendering:auto;enable-background:accumulate;stop-color:#000000;stop-opacity:1"/></g></svg>