<svg width="200" height="300" viewBox="0 0 200 300" fill="none" xmlns="http://www.w3.org/2000/svg"><g clip-path="url(#a)"><path d="M200 0H0v300h200z" fill="#041223"/><path d="M59.194 157.413v27.857c0 5.121 4.157 9.285 9.263 9.285h66.69c5.109 0 9.263-4.164 9.263-9.285v-27.857zm40.259-43.475-13.865 3.299 11.616 17.133 15.016-3.425zm-17.717 4.215-14.943 3.551 11.493 16.974 15.038-3.428zm62.614 3.499-3.152-11.989c-.727-2.916-3.705-4.75-6.644-4.078l-12.449 2.964 11.812 17.456 9.051-2.065a1.84 1.84 0 0 0 1.175-.85 1.88 1.88 0 0 0 .207-1.438m-26.102-12.186-14.861 3.536 12.79 17.044 13.861-3.161zm-40.384 29.379-5.929 14.853H86.47l5.929-14.853zm18.525 0-5.928 14.853h14.535l5.928-14.853zm46.168 0h-9.118l-5.928 14.857h16.899v-13a1.85 1.85 0 0 0-1.853-1.857m-27.643 0-5.928 14.853h14.531l5.932-14.853zm-51.974-16.22-3.02.717a5.52 5.52 0 0 0-3.505 2.515 5.54 5.54 0 0 0-.656 4.271l3.435 13.608v9.962h8.751l5.561-13.932.904-.204z" opacity=".2" fill="#B1B1B1"/></g><defs><clipPath id="a"><path fill="#fff" d="M0 0h200v300H0z"/></clipPath></defs></svg>