<svg width="200" height="300" viewBox="0 0 200 300" fill="none" xmlns="http://www.w3.org/2000/svg">
<g clip-path="url(#clip0_14_2)">
<path d="M200 0H0V300H200V0Z" fill="#041223"/>
<g opacity="0.2">
<path d="M59.194 157.413V185.27C59.194 190.391 63.351 194.555 68.4565 194.555H135.147C140.256 194.555 144.41 190.391 144.41 185.27V157.413H59.194Z" fill="#B1B1B1"/>
<path d="M99.4526 113.938L85.5882 117.237L97.2037 134.37L112.22 130.945L99.4526 113.938Z" fill="#B1B1B1"/>
<path d="M81.7356 118.153L66.7929 121.704L78.2859 138.678L93.3244 135.25L81.7356 118.153Z" fill="#B1B1B1"/>
<path d="M144.35 121.652L141.198 109.663C140.471 106.747 137.493 104.913 134.554 105.585L122.105 108.549L133.917 126.005L142.968 123.94C143.461 123.829 143.884 123.521 144.143 123.09C144.402 122.659 144.476 122.142 144.35 121.652Z" fill="#B1B1B1"/>
<path d="M118.248 109.466L103.387 113.002L116.177 130.046L130.038 126.885L118.248 109.466Z" fill="#B1B1B1"/>
<path d="M77.8637 138.845L71.9354 153.698H86.4704L92.3985 138.845H77.8637Z" fill="#B1B1B1"/>
<path d="M96.3889 138.845L90.4607 153.698H104.996L110.924 138.845H96.3889Z" fill="#B1B1B1"/>
<path d="M142.557 138.845H133.439L127.511 153.702H144.41V140.702C144.41 139.674 143.583 138.845 142.557 138.845Z" fill="#B1B1B1"/>
<path d="M114.914 138.845L108.986 153.698H123.517L129.449 138.845H114.914Z" fill="#B1B1B1"/>
<path d="M62.9397 122.625L59.92 123.342C58.4492 123.676 57.2043 124.571 56.4151 125.857C55.6259 127.146 55.3925 128.661 55.7593 130.128L59.1939 143.736V153.698H67.9451L73.5063 139.766L74.4104 139.562L62.9397 122.625Z" fill="#B1B1B1"/>
</g>
</g>
<defs>
<clipPath id="clip0_14_2">
<rect width="200" height="300" fill="white"/>
</clipPath>
</defs>
</svg>
